<svg xmlns="http://www.w3.org/2000/svg" viewBox="0 0 768 576" role="img" aria-labelledby="title desc"><title id="title">Cave Run — The Ten-Sun Hunt</title><desc id="desc">A hunter with a club stands among layered prehistoric mountains in golden evening light.</desc><defs><linearGradient id="sky" x2="0" y2="1"><stop stop-color="#19323b"/><stop offset="1" stop-color="#abc0a6"/></linearGradient><linearGradient id="shade" x2="0" y2="1"><stop stop-color="#0c1c2999"/><stop offset=".6" stop-color="#13293200"/><stop offset="1" stop-color="#0b1b28"/></linearGradient></defs><path fill="url(#sky)" d="M0 0h768v576H0z"/><circle cx="582" cy="204" r="43" fill="#efc98b"/><path d="M0 350L85 260l44 21 102-103 42 8 53 129 97-37 66 30 70-57 89 15 120-41v351H0Z" fill="#688c87"/><path d="M0 390l102-81 72 11 80 68 128-43 65-126 30-8 36 85-7 81 114-35 84 31 64-48v251H0Z" fill="#3e6567"/><path d="M0 452l120-60 56 31 60-85 35 32 88 16 115 56 68-37 38-62 31 8 30 81 127-48v192H0Z" fill="#23464f"/><path d="M0 487h768v89H0Z" fill="#142e39"/><path d="M0 487h768" stroke="#9eaf8d" stroke-width="3"/><g transform="translate(564 485)" stroke-linecap="round" stroke-linejoin="round"><path d="M-16-62l-9 33 2 26m31-59 8 37 17 22" stroke="#4a3d33" stroke-width="19"/><path d="M-18-105q-14 23-9 45l41 3q11-18 4-45Z" fill="#a6865d" stroke="#4d4035" stroke-width="3"/><path d="M-20-69l35 2" stroke="#393831" stroke-width="8"/><path d="M17-105l19 29 19-11" fill="none" stroke="#bd9768" stroke-width="12"/><path d="M53-80l9-48" stroke="#846949" stroke-width="8"/><path d="M57-122l-2-20 10-5 10 7-5 19Z" fill="#c0baa1" stroke="#625b47" stroke-width="3"/><path d="M-6-136q23-6 27 14l7 5-8 8-2 9-18-2-11-13Z" fill="#c7a06d"/><path d="M-12-114q-14-29 9-34l19 3 8 12-15-4-5 11-9 1 2 16Z" fill="#3a3430"/><path d="M1-110l18-4-1 13-15 8-9-12Z" fill="#4c3a2e"/><path d="M17-124h3" stroke="#263030" stroke-width="2"/></g><path fill="url(#shade)" d="M0 0h768v576H0z"/><text x="50" y="67" font-family="Arial,sans-serif" font-size="11" letter-spacing="5" fill="#deb483">SKAB ORIGINAL</text><text x="45" y="166" font-family="Georgia,serif" font-size="88" font-weight="bold" letter-spacing="-6" fill="#f2ede1">CAVE</text><text x="45" y="242" font-family="Georgia,serif" font-size="88" font-weight="bold" letter-spacing="-5" fill="#dcaa77">RUN.</text><text x="50" y="277" font-family="Arial,sans-serif" font-size="11" letter-spacing="4" fill="#f2ede1">THE TEN-SUN HUNT</text><path d="M50 525h39" stroke="#dbaa75"/><text x="102" y="529" font-family="Arial,sans-serif" font-size="10" letter-spacing="2" fill="#b6c6bf">EXPLORE · SURVIVE · RETURN</text></svg>
